<?xml version="1.0" encoding="utf-8"?>
<!-- Generator: Adobe Illustrator 16.0.0, SVG Export Plug-In . SVG Version: 6.00 Build 0)  -->
<!DOCTYPE svg PUBLIC "-//W3C//DTD SVG 1.1//EN" "http://www.w3.org/Graphics/SVG/1.1/DTD/svg11.dtd">
<svg version="1.1" id="Layer_1" xmlns="http://www.w3.org/2000/svg" xmlns:xlink="http://www.w3.org/1999/xlink" x="0px" y="0px"
	 width="612px" height="792px" viewBox="0 0 612 792" enable-background="new 0 0 612 792" xml:space="preserve">
<path d="M305.619,66.899c-8.945-15.037-21.513-29.361-29.964-36.879c-18.495-16.409-33.971-16.025-41.545-14.324
	c-3.184,0.713-6.092,1.866-8.672,3.458C212.267,9.33,196.243,4.556,176.815,4.556s-35.453,4.774-48.679,14.598
	c-2.579-1.592-5.488-2.744-8.671-3.458c-7.573-1.701-22.995-2.085-41.544,14.324c-8.507,7.519-21.019,21.842-29.965,36.879
	c-12.073,20.361-14.763,36.825-8.012,49.008c8.341,14.818,20.909,18.604,31.062,19.538c-2.469,9.714-4.061,20.031-4.061,32.983
	c0,17.123,3.896,31.831,11.58,43.794c6.75,10.482,16.464,18.879,28.922,24.971c22.939,11.25,50.599,12.513,69.369,12.513
	s46.428-1.317,69.369-12.513c12.402-6.092,22.171-14.488,28.922-24.971c7.683-11.909,11.579-26.672,11.579-43.794
	c0-12.897-1.536-23.269-4.062-32.983c10.153-0.933,22.721-4.72,31.007-19.538C320.438,103.724,317.748,87.26,305.619,66.899z
	 M76.329,118.487c-9-0.22-16.299-1.976-21.348-10.977c-3.403-6.146-0.604-17.726,7.793-31.83
	c7.958-13.391,19.373-26.397,26.617-32.818c11.964-10.592,20.909-11.196,25.135-10.592c-12.567,15.312-20.25,35.178-26.672,54.496
	c-2.689,8.012-5.213,14.817-7.738,21.458C78.798,111.737,77.536,115.14,76.329,118.487z M165.619,174.904
	c-4.445-4.445-6.75-9.11-6.75-11.415c0-2.085,0.33-2.195,1.646-2.744c3.732-1.592,11.141-1.756,16.354-1.756
	c5.213,0,12.568,0.165,16.354,1.756c1.317,0.549,1.646,0.713,1.646,2.744c0,2.305-2.306,6.97-6.751,11.415
	c-4.391,4.391-9.055,6.75-11.195,6.75S169.955,179.24,165.619,174.904z M238.665,221.662c-13.227,6.476-30.678,9.934-53.233,10.647
	v-35.233c6.75-2.579,12.238-7.519,14.763-10.043c3.566-3.567,11.799-12.952,11.799-23.598c0-8.671-4.335-15.312-12.183-18.605
	c-5.269-2.195-11.909-3.128-22.995-3.128s-17.781,0.878-22.995,3.128c-7.848,3.293-12.184,9.934-12.184,18.605
	c0,10.646,8.287,20.031,11.799,23.598c2.525,2.524,8.013,7.464,14.763,10.043v35.233c-22.555-0.713-40.007-4.171-53.234-10.647
	c-20.745-10.153-30.842-27.55-30.842-53.289c0-22.007,5.049-35.453,12.074-54.167c2.415-6.421,5.159-13.775,7.958-22.062
	c15.202-45.66,31.282-70.412,72.662-70.412s57.459,24.751,72.662,70.466c2.744,8.342,5.488,15.641,7.957,22.062
	c7.025,18.659,12.074,32.16,12.074,54.167C269.508,194.112,259.41,211.509,238.665,221.662z M298.649,107.511
	c-5.049,9.056-12.348,10.757-21.349,10.977c-1.206-3.348-2.47-6.75-3.786-10.263c-2.47-6.585-5.049-13.446-7.738-21.458
	c-6.421-19.318-14.104-39.24-26.672-54.496c4.227-0.549,13.172,0,25.135,10.592c7.244,6.421,18.659,19.427,26.617,32.818
	C299.252,89.785,302.052,101.365,298.649,107.511z"/>
<path d="M148.222,95.986c-6.202,0-11.306,5.104-11.306,11.415c0,6.312,5.049,11.415,11.306,11.415s11.305-5.104,11.305-11.415
	C159.473,101.09,154.424,95.986,148.222,95.986z"/>
<path d="M205.352,95.876c-6.256,0-11.359,5.159-11.359,11.525s5.104,11.525,11.359,11.525c6.258,0,11.361-5.159,11.361-11.525
	S211.61,95.876,205.352,95.876z"/>
</svg>
